<?xml version="1.0" encoding="UTF-8" standalone="no"?>
<!DOCTYPE svg PUBLIC "-//W3C//DTD SVG 1.1//EN"
 "http://www.w3.org/Graphics/SVG/1.1/DTD/svg11.dtd">
<!-- Generated by graphviz version 5.0.0 (20220707.1540)
 -->
<!-- Title: dependencies Pages: 1 -->
<svg width="774pt" height="247pt"
 viewBox="0.00 0.00 774.00 246.80" xmlns="http://www.w3.org/2000/svg" xmlns:xlink="http://www.w3.org/1999/xlink">
<g id="graph0" class="graph" transform="scale(1 1) rotate(0) translate(4 242.8)">
<title>dependencies</title>
<polygon fill="white" stroke="transparent" points="-4,4 -4,-242.8 770,-242.8 770,4 -4,4"/>
<text text-anchor="middle" x="383" y="-8.2" font-family="sans-serif" font-size="14.00">dependencies</text>
<g id="clust1" class="cluster">
<title>cluster_AppModule</title>
<polygon fill="none" stroke="black" stroke-dasharray="1,5" points="8,-32.8 8,-230.8 758,-230.8 758,-32.8 8,-32.8"/>
</g>
<g id="clust9" class="cluster">
<title>cluster_AppModule_bootstrap</title>
<polygon fill="none" stroke="black" points="320,-170.8 320,-222.8 444,-222.8 444,-170.8 320,-170.8"/>
</g>
<g id="clust2" class="cluster">
<title>cluster_AppModule_declarations</title>
<polygon fill="none" stroke="black" points="168,-40.8 168,-92.8 750,-92.8 750,-40.8 168,-40.8"/>
</g>
<g id="clust7" class="cluster">
<title>cluster_AppModule_imports</title>
<polygon fill="none" stroke="black" points="16,-40.8 16,-92.8 160,-92.8 160,-40.8 16,-40.8"/>
</g>
<!-- AppComponent -->
<g id="node1" class="node">
<title>AppComponent</title>
<polygon fill="#ffffb3" stroke="black" points="741.94,-84.8 636.06,-84.8 636.06,-48.8 741.94,-48.8 741.94,-84.8"/>
<text text-anchor="middle" x="689" y="-62.6" font-family="Times,serif" font-size="14.00">AppComponent</text>
</g>
<!-- AppModule -->
<g id="node5" class="node">
<title>AppModule</title>
<polygon fill="#8dd3c7" stroke="black" points="423.66,-149.8 420.66,-153.8 399.66,-153.8 396.66,-149.8 340.34,-149.8 340.34,-113.8 423.66,-113.8 423.66,-149.8"/>
<text text-anchor="middle" x="382" y="-127.6" font-family="Times,serif" font-size="14.00">AppModule</text>
</g>
<!-- AppComponent&#45;&gt;AppModule -->
<g id="edge1" class="edge">
<title>AppComponent&#45;&gt;AppModule</title>
<path fill="none" stroke="black" d="M689,-85.08C689,-106.12 689,-137.8 689,-137.8 689,-137.8 433.72,-137.8 433.72,-137.8"/>
<polygon fill="black" stroke="black" points="433.72,-134.3 423.72,-137.8 433.72,-141.3 433.72,-134.3"/>
</g>
<!-- DescriptionComponent -->
<g id="node2" class="node">
<title>DescriptionComponent</title>
<polygon fill="#ffffb3" stroke="black" points="618.15,-84.8 471.85,-84.8 471.85,-48.8 618.15,-48.8 618.15,-84.8"/>
<text text-anchor="middle" x="545" y="-62.6" font-family="Times,serif" font-size="14.00">DescriptionComponent</text>
</g>
<!-- DescriptionComponent&#45;&gt;AppModule -->
<g id="edge2" class="edge">
<title>DescriptionComponent&#45;&gt;AppModule</title>
<path fill="none" stroke="black" d="M545,-84.82C545,-102.17 545,-125.8 545,-125.8 545,-125.8 433.98,-125.8 433.98,-125.8"/>
<polygon fill="black" stroke="black" points="433.98,-122.3 423.98,-125.8 433.98,-129.3 433.98,-122.3"/>
</g>
<!-- MytodolistComponent -->
<g id="node3" class="node">
<title>MytodolistComponent</title>
<polygon fill="#ffffb3" stroke="black" points="453.29,-84.8 310.71,-84.8 310.71,-48.8 453.29,-48.8 453.29,-84.8"/>
<text text-anchor="middle" x="382" y="-62.6" font-family="Times,serif" font-size="14.00">MytodolistComponent</text>
</g>
<!-- MytodolistComponent&#45;&gt;AppModule -->
<g id="edge3" class="edge">
<title>MytodolistComponent&#45;&gt;AppModule</title>
<path fill="none" stroke="black" d="M382,-84.91C382,-84.91 382,-103.79 382,-103.79"/>
<polygon fill="black" stroke="black" points="378.5,-103.79 382,-113.79 385.5,-103.79 378.5,-103.79"/>
</g>
<!-- RecapComponent -->
<g id="node4" class="node">
<title>RecapComponent</title>
<polygon fill="#ffffb3" stroke="black" points="292.31,-84.8 175.69,-84.8 175.69,-48.8 292.31,-48.8 292.31,-84.8"/>
<text text-anchor="middle" x="234" y="-62.6" font-family="Times,serif" font-size="14.00">RecapComponent</text>
</g>
<!-- RecapComponent&#45;&gt;AppModule -->
<g id="edge4" class="edge">
<title>RecapComponent&#45;&gt;AppModule</title>
<path fill="none" stroke="black" d="M234,-84.82C234,-102.17 234,-125.8 234,-125.8 234,-125.8 329.99,-125.8 329.99,-125.8"/>
<polygon fill="black" stroke="black" points="329.99,-129.3 339.99,-125.8 329.98,-122.3 329.99,-129.3"/>
</g>
<!-- AppComponent  -->
<g id="node7" class="node">
<title>AppComponent </title>
<polygon fill="#80b1d3" stroke="black" points="436.44,-214.8 327.56,-214.8 327.56,-178.8 436.44,-178.8 436.44,-214.8"/>
<text text-anchor="middle" x="382" y="-192.6" font-family="Times,serif" font-size="14.00">AppComponent </text>
</g>
<!-- AppModule&#45;&gt;AppComponent  -->
<g id="edge6" class="edge">
<title>AppModule&#45;&gt;AppComponent </title>
<path fill="none" stroke="black" stroke-dasharray="1,5" d="M382,-149.91C382,-149.91 382,-168.79 382,-168.79"/>
<polygon fill="black" stroke="black" points="378.5,-168.79 382,-178.79 385.5,-168.79 378.5,-168.79"/>
</g>
<!-- AppRoutingModule -->
<g id="node6" class="node">
<title>AppRoutingModule</title>
<polygon fill="#8dd3c7" stroke="black" points="152.28,-84.8 149.28,-88.8 128.28,-88.8 125.28,-84.8 23.72,-84.8 23.72,-48.8 152.28,-48.8 152.28,-84.8"/>
<text text-anchor="middle" x="88" y="-62.6" font-family="Times,serif" font-size="14.00">AppRoutingModule</text>
</g>
<!-- AppRoutingModule&#45;&gt;AppModule -->
<g id="edge5" class="edge">
<title>AppRoutingModule&#45;&gt;AppModule</title>
<path fill="none" stroke="black" d="M88,-85.08C88,-106.12 88,-137.8 88,-137.8 88,-137.8 330.19,-137.8 330.19,-137.8"/>
<polygon fill="black" stroke="black" points="330.19,-141.3 340.19,-137.8 330.19,-134.3 330.19,-141.3"/>
</g>
</g>
</svg>
